<?xml version="1.0" standalone="no"?>
<!DOCTYPE svg PUBLIC "-//W3C//DTD SVG 20010904//EN"
 "http://www.w3.org/TR/2001/REC-SVG-20010904/DTD/svg10.dtd">
<svg version="1.0" xmlns="http://www.w3.org/2000/svg"
 width="299.000000pt" height="169.000000pt" viewBox="0 0 299.000000 169.000000"
 preserveAspectRatio="xMidYMid meet">

<g transform="translate(0.000000,169.000000) scale(0.100000,-0.100000)"
fill="#000000" stroke="none">
<path d="M1355 1641 c-189 -54 -341 -209 -390 -397 -64 -245 61 -517 287 -629
42 -21 84 -35 92 -32 12 5 16 21 16 64 l0 58 -53 0 c-71 0 -101 18 -137 81
-16 30 -41 61 -55 70 -29 19 -24 34 12 34 19 0 40 -14 72 -49 52 -56 81 -71
129 -64 26 4 36 13 47 40 8 20 15 37 15 39 0 1 -27 10 -59 20 -113 31 -171
106 -179 230 -4 59 -1 79 19 120 16 34 23 69 24 116 2 104 25 115 123 62 41
-22 49 -23 117 -13 50 7 93 6 139 -1 61 -10 69 -9 113 13 74 37 100 41 113 16
6 -11 10 -47 9 -79 -1 -33 3 -65 9 -73 42 -50 53 -146 27 -235 -26 -87 -83
-136 -188 -163 -45 -11 -46 -12 -32 -32 11 -16 15 -50 15 -123 0 -56 3 -109 6
-118 9 -24 34 -20 111 19 176 88 303 295 303 495 0 248 -196 489 -438 539 -76
16 -198 12 -267 -8z"/>
<path d="M715 505 c-87 -31 -132 -129 -122 -267 10 -152 78 -214 225 -206 42
3 90 10 105 16 l28 12 -3 122 -3 123 -82 3 -83 3 0 -46 c0 -45 0 -45 35 -45
l35 0 0 -50 0 -50 -43 0 c-23 0 -53 7 -66 16 -70 50 -68 223 4 270 28 18 91
23 137 11 24 -6 28 -4 34 20 3 16 8 35 10 44 9 34 -135 51 -211 24z"/>
<path d="M1400 268 l0 -233 47 1 48 1 3 102 3 101 64 0 65 0 0 -100 0 -100 50
0 50 0 0 230 0 230 -50 0 -50 0 0 -85 0 -85 -65 0 -65 0 0 85 0 85 -50 0 -50
0 0 -232z"/>
<path d="M2112 268 l3 -231 34 -1 c18 -1 36 4 38 11 3 8 12 7 31 -3 15 -8 50
-14 78 -14 42 0 56 5 77 26 32 32 40 71 35 170 -3 71 -6 78 -36 105 -35 31
-86 38 -136 19 l-26 -10 0 80 0 80 -50 0 -50 0 2 -232z m188 -3 c18 -21 24
-95 11 -128 -10 -26 -15 -28 -53 -25 l-43 3 -3 74 c-2 53 1 77 10 82 21 14 65
10 78 -6z"/>
<path d="M1010 470 c-24 -24 -25 -38 -4 -68 29 -41 94 -19 94 33 0 51 -54 71
-90 35z"/>
<path d="M1180 395 c0 -39 -3 -45 -25 -51 -21 -5 -25 -12 -25 -40 0 -30 3 -34
25 -34 24 0 25 -2 25 -75 0 -83 17 -137 48 -154 12 -6 43 -11 71 -11 l51 0 0
39 c0 37 -2 40 -32 43 l-33 3 -3 78 -3 77 36 0 c34 0 35 1 35 40 0 39 -1 40
-35 40 -35 0 -35 0 -35 45 l0 45 -50 0 -50 0 0 -45z"/>
<path d="M1000 196 l0 -154 46 -4 c25 -2 47 -1 50 1 2 2 4 73 4 158 l0 153
-50 0 -50 0 0 -154z"/>
<path d="M1780 215 c0 -131 1 -137 25 -160 20 -21 34 -25 79 -25 30 0 67 6 82
12 22 10 28 10 32 0 4 -13 30 -16 56 -6 14 5 16 29 16 160 l0 154 -50 0 -49 0
-3 -117 -3 -118 -38 -3 c-32 -3 -38 0 -47 23 -6 14 -10 69 -10 121 l0 94 -45
0 -45 0 0 -135z"/>
</g>
</svg>
