<?xml version="1.0" standalone="no"?>
<!DOCTYPE svg PUBLIC "-//W3C//DTD SVG 20010904//EN"
 "http://www.w3.org/TR/2001/REC-SVG-20010904/DTD/svg10.dtd">
<svg version="1.0" xmlns="http://www.w3.org/2000/svg"
 width="347.000000pt" height="145.000000pt" viewBox="0 0 347.000000 145.000000"
 preserveAspectRatio="xMidYMid meet">

<g transform="translate(0.000000,145.000000) scale(0.100000,-0.100000)"
fill="#000000" stroke="none">
<path d="M609 1363 l-80 -77 78 -78 c73 -74 80 -78 121 -78 37 0 50 -6 78 -34
28 -28 34 -41 34 -78 0 -41 5 -48 73 -116 68 -67 75 -72 116 -72 36 0 49 -6
77 -34 29 -29 34 -41 34 -79 0 -35 -6 -51 -28 -75 -74 -79 -195 -29 -195 79 0
36 -6 46 -68 108 l-69 67 0 -187 0 -187 30 -30 c34 -35 40 -84 15 -131 -14
-29 -68 -61 -102 -61 -32 0 -84 39 -99 76 -19 46 -11 86 27 121 l29 28 0 194
c0 193 0 193 -24 212 -28 22 -50 80 -41 108 4 14 -13 36 -71 92 -41 41 -80 74
-84 74 -14 0 -441 -428 -450 -451 -4 -11 -6 -32 -3 -46 3 -17 119 -139 342
-362 328 -327 338 -336 376 -336 38 0 48 9 377 337 331 331 338 338 338 377 0
39 -7 48 -322 364 -178 178 -335 330 -350 338 -53 28 -75 19 -159 -63z"/>
<path d="M2627 1420 c-48 -38 -54 -134 -11 -181 49 -54 158 -46 194 14 37 60
21 146 -31 173 -42 21 -121 18 -152 -6z"/>
<path d="M3097 1303 c-4 -3 -7 -18 -7 -32 0 -14 -11 -50 -25 -78 -26 -56 -66
-88 -122 -99 -33 -6 -33 -7 -33 -65 l0 -59 54 0 54 0 4 -237 c3 -231 4 -239
27 -277 34 -55 94 -80 191 -79 69 0 169 21 211 44 16 8 16 13 -1 66 -12 36
-23 57 -31 55 -87 -22 -154 -17 -175 13 -19 26 -25 104 -22 265 l3 145 103 3
102 3 0 64 0 64 -102 3 -103 3 -3 103 -3 102 -58 0 c-32 0 -61 -3 -64 -7z"/>
<path d="M1963 1080 c-102 -22 -172 -84 -199 -177 -29 -100 -2 -201 71 -261
l36 -29 -32 -27 c-91 -77 -115 -151 -64 -202 l25 -25 -31 -39 c-44 -54 -50
-121 -17 -169 31 -47 71 -69 159 -87 90 -19 277 -14 356 11 113 34 183 120
183 225 0 139 -73 181 -345 196 -66 4 -130 10 -142 13 l-22 6 21 33 20 33 72
-7 c167 -15 298 60 325 187 12 55 6 98 -20 150 -18 37 -18 37 4 43 12 3 39 6
60 6 l37 0 0 60 0 60 -117 0 c-65 0 -167 2 -228 5 -60 2 -129 0 -152 -5z m193
-145 c59 -39 67 -134 15 -185 -52 -52 -157 -48 -201 7 -22 29 -28 110 -9 145
28 52 138 71 195 33z m31 -630 c47 -7 66 -24 61 -56 -6 -44 -50 -63 -153 -67
-52 -2 -110 -1 -130 2 -69 13 -95 68 -56 117 19 24 21 25 128 17 59 -4 127
-10 150 -13z"/>
<path d="M2546 1078 c-3 -7 -7 -32 -10 -54 l-6 -41 45 -18 45 -17 -2 -226 -3
-226 -42 -9 -43 -8 0 -50 0 -49 195 0 195 0 0 49 0 50 -42 8 -43 9 -3 297 -2
297 -140 0 c-104 0 -142 -3 -144 -12z"/>
</g>
</svg>
